<svg xmlns:xlink="http://www.w3.org/1999/xlink" width="24" xmlns="http://www.w3.org/2000/svg" height="24" id="screenshot-369b0f60-2f0f-11ed-8912-95503807acdd" viewBox="-789 264 24 24" style="-webkit-print-color-adjust: exact;" fill="none" version="1.1"><g id="shape-369b0f60-2f0f-11ed-8912-95503807acdd"><g id="fills-369b0f60-2f0f-11ed-8912-95503807acdd"><path width="24" height="24" rx="0" ry="0" d="M-775.8,285.6L-775.8,288L-778.2,288L-778.2,285.6L-787.8,285.6C-788.4627416997969,285.6,-789,285.062741699797,-789,284.4000000000001L-789,265.20000000000005C-789,264.5372583002031,-788.4627416997969,264,-787.8,264L-780.6,264C-779.2221091173254,263.99836520068106,-777.9103055272219,264.590425887681,-777,265.62480000000005C-776.0896944727781,264.590425887681,-774.7778908826746,263.99836520068106,-773.4,264L-766.2,264C-765.5372583002031,264,-765,264.5372583002031,-765,265.20000000000005L-765,284.4000000000001C-765,285.062741699797,-765.5372583002031,285.6,-766.2,285.6L-775.8,285.6ZZM-767.4,283.20000000000005L-767.4,266.4000000000001L-773.4,266.4000000000001C-774.725483399594,266.4000000000001,-775.8,267.4745166004061,-775.8,268.79999999999995L-775.8,283.20000000000005L-767.4,283.20000000000005ZZM-778.2,283.20000000000005L-778.2,268.79999999999995C-778.2,267.4745166004061,-779.274516600406,266.4000000000001,-780.6,266.4000000000001L-786.6,266.4000000000001L-786.6,283.20000000000005L-778.2,283.20000000000005ZZ" style="fill: rgb(45, 45, 45); fill-opacity: 1;"/></g></g></svg>