<svg xmlns:xlink="http://www.w3.org/1999/xlink" width="19" xmlns="http://www.w3.org/2000/svg" height="24" id="screenshot-1d6824a0-2f10-11ed-8912-95503807acdd" viewBox="1994.5 494 19 24" style="-webkit-print-color-adjust: exact;" fill="none" version="1.1"><g id="shape-1d6824a0-2f10-11ed-8912-95503807acdd"><g id="fills-1d6824a0-2f10-11ed-8912-95503807acdd"><path width="24" height="24" rx="0" ry="0" d="M2012.3125,494C2012.9683381404243,494,2013.5,494.53725830020306,2013.5,495.19999999999993L2013.5,516.8C2013.5,517.462741699797,2012.9683381404243,518,2012.3125,518L1995.6875,518C1995.0316618595762,518,1994.5,517.462741699797,1994.5,516.8L1994.5,495.19999999999993C1994.5,494.53725830020306,1995.0316618595762,494,1995.6875,494L2012.3125,494ZZM2011.125,496.39999999999986L1996.875,496.39999999999986L1996.875,515.5999999999999L2011.125,515.5999999999999L2011.125,496.39999999999986ZZM2004,500C2006.6547406317613,499.9997039079361,2008.9870748042022,501.78025998186973,2009.7123050499208,504.36090144070334C2010.4375352956395,506.94154289953696,2009.3794033594304,509.69507670556845,2007.12075,511.10479999999995L2004.59375,506L2007.5625,506C2007.5625,504.01177490060905,2005.9675144212724,502.39999999999986,2004,502.39999999999986C2002.0324855787276,502.39999999999986,2000.4375,504.01177490060905,2000.4375,506C2000.4375,507.9882250993907,2002.0324855787276,509.5999999999999,2004,509.5999999999999L2005.1340625000003,511.8908C2002.9189359983488,512.3237936392683,2000.6523571637636,511.45069639092605,1999.284530129651,509.6375315326908C1997.9167030955387,507.8243666744557,1997.684002350451,505.38446762154484,1998.6839816200536,503.34069849401214C1999.6839608896557,501.29692936647945,2001.7438135379343,500.0024743536923,2004,500ZZ" style="fill: rgb(45, 45, 45); fill-opacity: 1;"/></g></g></svg>