<svg xmlns:xlink="http://www.w3.org/1999/xlink" width="24" xmlns="http://www.w3.org/2000/svg" height="24" id="screenshot-1d6824a3-2f10-11ed-8912-95503807acdd" viewBox="1992 422 24 24" style="-webkit-print-color-adjust: exact;" fill="none" version="1.1"><g id="shape-1d6824a3-2f10-11ed-8912-95503807acdd"><g id="fills-1d6824a3-2f10-11ed-8912-95503807acdd"><path width="24" height="24" rx="0" ry="0" d="M2004,422C2010.6275999999998,422,2016,427.37239999999997,2016,434C2016,440.62760000000003,2010.6275999999998,446,2004,446C1997.3724000000002,446,1992,440.62760000000003,1992,434C1992,427.37239999999997,1997.3724000000002,422,2004,422ZZM1998.2363999999998,437.2184L1995.6264,439.82719999999995C1996.2317579409223,440.69473763850027,1996.9676570408446,441.4634243220827,1997.808,442.106L1998.174,442.3736L2000.7816000000003,439.7636C1999.8129662638617,439.2211293083453,1998.9960012225074,438.44418730184515,1998.4056,437.504L1998.2363999999998,437.2184ZZM2009.7636000000002,437.2184C2009.2211293083456,438.1870337361381,2008.444187301845,439.00399877749254,2007.504,439.59439999999995L2007.2183999999997,439.7624L2009.8271999999997,442.3736C2010.6947376385006,441.7682420590777,2011.4634243220826,441.0323429591551,2012.1060000000002,440.192L2012.3736,439.82719999999995L2009.7636000000002,437.2184ZZM2004,429.2C2001.3490332008123,429.2,1999.1999999999998,431.3490332008122,1999.1999999999998,434C1999.1999999999998,436.65096679918776,2001.3490332008123,438.79999999999995,2004,438.79999999999995C2006.6509667991877,438.79999999999995,2008.8000000000002,436.65096679918776,2008.8000000000002,434C2008.8000000000002,431.3490332008122,2006.6509667991877,429.2,2004,429.2ZZM1998.174,425.6264C1997.3060360007412,426.231660957572,1996.5369394746253,426.96756489677136,1995.8939999999998,427.80799999999994L1995.6264,428.174L1998.2363999999998,430.78159999999997C1998.7788706916544,429.8129662638619,1999.555812698155,428.9960012225074,2000.496,428.4056L2000.7816000000003,428.23759999999993L1998.174,425.6264ZZM2009.826,425.6264L2007.2183999999997,428.2364C2008.1870337361383,428.7788706916546,2009.0039987774926,429.5558126981548,2009.5944,430.496L2009.7623999999996,430.78159999999997L2012.3736,428.174C2011.7683390424281,427.30603600074124,2011.0324351032286,426.5369394746252,2010.192,425.894L2009.826,425.6264ZZ" style="fill: rgb(45, 45, 45); fill-opacity: 1;"/></g></g></svg>