<svg xmlns:xlink="http://www.w3.org/1999/xlink" width="24" xmlns="http://www.w3.org/2000/svg" height="24" id="screenshot-1d6824a5-2f10-11ed-8912-95503807acdd" viewBox="1992 350 24 24" style="-webkit-print-color-adjust: exact;" fill="none" version="1.1"><g id="shape-1d6824a5-2f10-11ed-8912-95503807acdd"><g id="fills-1d6824a5-2f10-11ed-8912-95503807acdd"><path width="24" height="24" rx="0" ry="0" d="M2012.4,374L1995.6,374C1993.611774900609,374,1992,372.38822509939087,1992,370.4L1992,351.20000000000005C1992,350.537258300203,1992.5372583002031,350,1993.1999999999998,350L2010,350C2010.6627416997972,350,2011.1999999999998,350.537258300203,2011.1999999999998,351.20000000000005L2011.1999999999998,365.5999999999999L2016,365.5999999999999L2016,370.4C2016,372.38822509939087,2014.388225099391,374,2012.4,374ZZM2011.1999999999998,368L2011.1999999999998,370.4C2011.1999999999998,371.0627416997969,2011.7372583002034,371.5999999999999,2012.4,371.5999999999999C2013.0627416997968,371.5999999999999,2013.6,371.0627416997969,2013.6,370.4L2013.6,368L2011.1999999999998,368ZZM2008.8000000000002,371.5999999999999L2008.8000000000002,352.4L1994.4,352.4L1994.4,370.4C1994.4,371.0627416997969,1994.9372583002032,371.5999999999999,1995.6,371.5999999999999L2008.8000000000002,371.5999999999999ZZM1996.8000000000002,356L2006.4,356L2006.4,358.4L1996.8000000000002,358.4L1996.8000000000002,356ZZM1996.8000000000002,360.79999999999995L2006.4,360.79999999999995L2006.4,363.20000000000005L1996.8000000000002,363.20000000000005L1996.8000000000002,360.79999999999995ZZM1996.8000000000002,365.5999999999999L2002.8000000000002,365.5999999999999L2002.8000000000002,368L1996.8000000000002,368L1996.8000000000002,365.5999999999999ZZ" style="fill: rgb(45, 45, 45); fill-opacity: 1;"/></g></g></svg>